TITLE "124.700, flac"
FILE "124.700.flac" WAVE

TRACK 01 AUDIO
TITLE "2020.02.06-05:59.37:513820"
INDEX 01 00:37:13

TRACK 02 AUDIO
TITLE "2020.02.06-06:00.13:133980"
INDEX 00 00:42:42
INDEX 01 01:12:60

TRACK 03 AUDIO
TITLE "2020.02.06-06:00.33:878910"
INDEX 00 01:30:63
INDEX 01 01:33:41

TRACK 04 AUDIO
TITLE "2020.02.06-06:00.37:393769"
INDEX 00 01:36:68
INDEX 01 01:37:04

TRACK 05 AUDIO
TITLE "2020.02.06-06:00.41:354686"
INDEX 00 01:40:19
INDEX 01 01:41:01

TRACK 06 AUDIO
TITLE "2020.02.06-06:01.00:673718"
INDEX 00 01:48:51
INDEX 01 02:00:25

TRACK 07 AUDIO
TITLE "2020.02.06-06:01.52:974046"
INDEX 00 02:28:37
INDEX 01 02:52:48

TRACK 08 AUDIO
TITLE "2020.02.06-06:02.27:718072"
INDEX 00 03:01:45
INDEX 01 03:27:29

TRACK 09 AUDIO
TITLE "2020.02.06-06:02.37:713652"
INDEX 00 03:33:02
INDEX 01 03:37:28

TRACK 10 AUDIO
TITLE "2020.02.06-06:03.28:180104"
INDEX 00 03:52:43
INDEX 01 04:27:63

TRACK 11 AUDIO
TITLE "2020.02.06-06:03.32:013671"
INDEX 00 04:31:21
INDEX 01 04:31:51

TRACK 12 AUDIO
TITLE "2020.02.06-06:04.03:834863"
INDEX 00 04:35:19
INDEX 01 05:03:37

TRACK 13 AUDIO
TITLE "2020.02.06-06:04.19:455527"
INDEX 00 05:13:54
INDEX 01 05:19:09

TRACK 14 AUDIO
TITLE "2020.02.06-06:04.34:873929"
INDEX 00 05:31:56
INDEX 01 05:34:40

TRACK 15 AUDIO
TITLE "2020.02.06-06:04.39:193672"
INDEX 00 05:38:61
INDEX 01 05:38:64

TRACK 16 AUDIO
TITLE "2020.02.06-06:04.45:753740"
INDEX 00 05:44:49
INDEX 01 05:45:31

TRACK 17 AUDIO
TITLE "2020.02.06-06:05.03:193845"
INDEX 00 06:01:36
INDEX 01 06:02:64

TRACK 18 AUDIO
TITLE "2020.02.06-06:05.08:894113"
INDEX 00 06:07:46
INDEX 01 06:08:42

TRACK 19 AUDIO
TITLE "2020.02.06-06:05.40:537149"
INDEX 00 06:11:45
INDEX 01 06:40:15

TRACK 20 AUDIO
TITLE "2020.02.06-06:05.45:096575"
INDEX 00 06:44:17
INDEX 01 06:44:57

TRACK 21 AUDIO
TITLE "2020.02.06-06:06.14:373756"
INDEX 00 07:02:66
INDEX 01 07:14:03

TRACK 22 AUDIO
TITLE "2020.02.06-06:06.50:353786"
INDEX 00 07:42:04
INDEX 01 07:50:01

TRACK 23 AUDIO
TITLE "2020.02.06-06:07.06:673646"
INDEX 00 08:04:54
INDEX 01 08:06:25

TRACK 24 AUDIO
TITLE "2020.02.06-06:07.47:593804"
INDEX 00 08:13:09
INDEX 01 08:47:19

TRACK 25 AUDIO
TITLE "2020.02.06-06:08.16:573692"
INDEX 00 08:53:24
INDEX 01 09:16:18

TRACK 26 AUDIO
TITLE "2020.02.06-06:08.20:353814"
INDEX 00 09:19:42
INDEX 01 09:20:01

TRACK 27 AUDIO
TITLE "2020.02.06-06:08.38:973741"
INDEX 00 09:23:31
INDEX 01 09:38:48

TRACK 28 AUDIO
TITLE "2020.02.06-06:09.06:877721"
INDEX 00 10:06:07
INDEX 01 10:06:41

TRACK 29 AUDIO
TITLE "2020.02.06-06:09.20:957232"
INDEX 00 10:18:65
INDEX 01 10:20:47

TRACK 30 AUDIO
TITLE "2020.02.06-06:09.34:354030"
INDEX 00 10:33:54
INDEX 01 10:34:01

TRACK 31 AUDIO
TITLE "2020.02.06-06:10.47:633834"
INDEX 00 11:45:09
INDEX 01 11:47:22

TRACK 32 AUDIO
TITLE "2020.02.06-06:11.00:133641"
INDEX 00 11:52:55
INDEX 01 11:59:60

TRACK 33 AUDIO
TITLE "2020.02.06-06:11.12:073837"
INDEX 00 12:11:04
INDEX 01 12:11:55

TRACK 34 AUDIO
TITLE "2020.02.06-06:11.27:313854"
INDEX 00 12:23:67
INDEX 01 12:26:73

TRACK 35 AUDIO
TITLE "2020.02.06-06:11.56:954118"
INDEX 00 12:54:61
INDEX 01 12:56:46

TRACK 36 AUDIO
TITLE "2020.02.06-06:12.04:273938"
INDEX 00 12:59:72
INDEX 01 13:03:70

TRACK 37 AUDIO
TITLE "2020.02.06-06:12.23:093730"
INDEX 00 13:22:01
INDEX 01 13:22:57

TRACK 38 AUDIO
TITLE "2020.02.06-06:12.29:293803"
INDEX 00 13:28:60
INDEX 01 13:28:72

TRACK 39 AUDIO
TITLE "2020.02.06-06:12.43:293685"
INDEX 00 13:40:31
INDEX 01 13:42:72

TRACK 40 AUDIO
TITLE "2020.02.06-06:12.54:713868"
INDEX 00 13:50:73
INDEX 01 13:54:28

TRACK 41 AUDIO
TITLE "2020.02.06-06:12.59:633736"
INDEX 00 13:58:03
INDEX 01 13:59:22

TRACK 42 AUDIO
TITLE "2020.02.06-06:13.45:533642"
INDEX 00 14:44:13
INDEX 01 14:45:15

TRACK 43 AUDIO
TITLE "2020.02.06-06:13.51:773837"
INDEX 00 14:48:69
INDEX 01 14:51:33

TRACK 44 AUDIO
TITLE "2020.02.06-06:14.07:873800"
INDEX 00 15:05:30
INDEX 01 15:07:40

TRACK 45 AUDIO
TITLE "2020.02.06-06:14.53:116428"
INDEX 00 15:52:19
INDEX 01 15:52:59

TRACK 46 AUDIO
TITLE "2020.02.06-06:15.00:073771"
INDEX 00 15:56:14
INDEX 01 15:59:55

TRACK 47 AUDIO
TITLE "2020.02.06-06:15.10:553679"
INDEX 00 16:09:73
INDEX 01 16:10:16

TRACK 48 AUDIO
TITLE "2020.02.06-06:15.41:156698"
INDEX 00 16:33:28
INDEX 01 16:40:62

TRACK 49 AUDIO
TITLE "2020.02.06-06:16.09:076919"
INDEX 00 17:06:66
INDEX 01 17:08:56

TRACK 50 AUDIO
TITLE "2020.02.06-06:16.16:994208"
INDEX 00 17:13:17
INDEX 01 17:16:49

TRACK 51 AUDIO
TITLE "2020.02.06-06:16.49:236630"
INDEX 00 17:24:00
INDEX 01 17:48:68

TRACK 52 AUDIO
TITLE "2020.02.06-06:18.15:073777"
INDEX 00 18:42:56
INDEX 01 19:14:55

TRACK 53 AUDIO
TITLE "2020.02.06-06:18.29:293940"
INDEX 00 19:20:51
INDEX 01 19:28:72

TRACK 54 AUDIO
TITLE "2020.02.06-06:19.21:893653"
INDEX 00 19:36:06
INDEX 01 20:21:42

TRACK 55 AUDIO
TITLE "2020.02.06-06:19.39:515142"
INDEX 00 20:37:61
INDEX 01 20:39:13

TRACK 56 AUDIO
TITLE "2020.02.06-06:21.04:873966"
INDEX 00 20:56:37
INDEX 01 22:04:40

TRACK 57 AUDIO
TITLE "2020.02.06-06:21.16:053769"
INDEX 00 22:15:40
INDEX 01 22:15:54

TRACK 58 AUDIO
TITLE "2020.02.06-06:21.33:196340"
INDEX 00 22:25:57
INDEX 01 22:32:65

TRACK 59 AUDIO
TITLE "2020.02.06-06:22.10:233783"
INDEX 00 22:40:23
INDEX 01 23:09:67

TRACK 60 AUDIO
TITLE "2020.02.06-06:22.32:053784"
INDEX 00 23:26:34
INDEX 01 23:31:54

TRACK 61 AUDIO
TITLE "2020.02.06-06:22.40:973789"
INDEX 00 23:38:67
INDEX 01 23:40:48

TRACK 62 AUDIO
TITLE "2020.02.06-06:22.52:733632"
INDEX 00 23:52:01
INDEX 01 23:52:30

TRACK 63 AUDIO
TITLE "2020.02.06-06:23.12:073773"
INDEX 00 24:06:24
INDEX 01 24:11:55

TRACK 64 AUDIO
TITLE "2020.02.06-06:23.32:316124"
INDEX 00 24:20:30
INDEX 01 24:31:74

TRACK 65 AUDIO
TITLE "2020.02.06-06:24.07:053920"
INDEX 00 24:46:74
INDEX 01 25:06:54

TRACK 66 AUDIO
TITLE "2020.02.06-06:24.18:173669"
INDEX 00 25:14:48
INDEX 01 25:17:63

TRACK 67 AUDIO
TITLE "2020.02.06-06:24.36:478371"
INDEX 00 25:33:22
INDEX 01 25:36:11

TRACK 68 AUDIO
TITLE "2020.02.06-06:24.54:456629"
INDEX 00 25:48:74
INDEX 01 25:54:09

TRACK 69 AUDIO
TITLE "2020.02.06-06:25.09:871683"
INDEX 00 26:08:21
INDEX 01 26:09:40

TRACK 70 AUDIO
TITLE "2020.02.06-06:25.12:555136"
INDEX 00 26:11:37
INDEX 01 26:12:16

TRACK 71 AUDIO
TITLE "2020.02.06-06:25.20:673668"
INDEX 00 26:19:18
INDEX 01 26:20:25

TRACK 72 AUDIO
TITLE "2020.02.06-06:25.37:473853"
INDEX 00 26:32:64
INDEX 01 26:37:10

TRACK 73 AUDIO
TITLE "2020.02.06-06:26.34:373758"
INDEX 00 26:53:73
INDEX 01 27:34:03

TRACK 74 AUDIO
TITLE "2020.02.06-06:26.49:313901"
INDEX 00 27:48:04
INDEX 01 27:48:73

TRACK 75 AUDIO
TITLE "2020.02.06-06:27.01:876569"
INDEX 00 27:56:18
INDEX 01 28:01:41

TRACK 76 AUDIO
TITLE "2020.02.06-06:27.18:393977"
INDEX 00 28:09:21
INDEX 01 28:18:04

TRACK 77 AUDIO
TITLE "2020.02.06-06:27.21:413636"
INDEX 00 28:19:55
INDEX 01 28:21:06

TRACK 78 AUDIO
TITLE "2020.02.06-06:27.26:253862"
INDEX 00 28:23:19
INDEX 01 28:25:69

TRACK 79 AUDIO
TITLE "2020.02.06-06:27.28:855911"
INDEX 00 28:28:19
INDEX 01 28:28:39

TRACK 80 AUDIO
TITLE "2020.02.06-06:27.33:533835"
INDEX 00 28:33:06
INDEX 01 28:33:15

TRACK 81 AUDIO
TITLE "2020.02.06-06:27.45:118912"
INDEX 00 28:43:28
INDEX 01 28:44:59

TRACK 82 AUDIO
TITLE "2020.02.06-06:27.58:558560"
INDEX 00 28:56:48
INDEX 01 28:58:17

TRACK 83 AUDIO
TITLE "2020.02.06-06:28.18:593874"
INDEX 00 29:18:06
INDEX 01 29:18:19

TRACK 84 AUDIO
TITLE "2020.02.06-06:28.46:254067"
INDEX 00 29:42:49
INDEX 01 29:45:69

TRACK 85 AUDIO
TITLE "2020.02.06-06:29.05:733606"
INDEX 00 30:03:22
INDEX 01 30:05:30

TRACK 86 AUDIO
TITLE "2020.02.06-06:29.09:753642"
INDEX 00 30:09:19
INDEX 01 30:09:31

TRACK 87 AUDIO
TITLE "2020.02.06-06:29.26:959723"
INDEX 00 30:19:73
INDEX 01 30:26:47

TRACK 88 AUDIO
TITLE "2020.02.06-06:29.43:893601"
INDEX 00 30:42:30
INDEX 01 30:43:42

TRACK 89 AUDIO
TITLE "2020.02.06-06:30.23:933776"
INDEX 00 31:20:66
INDEX 01 31:23:45

TRACK 90 AUDIO
TITLE "2020.02.06-06:30.33:554644"
INDEX 00 31:32:06
INDEX 01 31:33:16

TRACK 91 AUDIO
TITLE "2020.02.06-06:31.13:933863"
INDEX 00 32:10:52
INDEX 01 32:13:45

TRACK 92 AUDIO
TITLE "2020.02.06-06:31.36:413761"
INDEX 00 32:32:63
INDEX 01 32:36:06

TRACK 93 AUDIO
TITLE "2020.02.06-06:31.42:073703"
INDEX 00 32:41:06
INDEX 01 32:41:55

TRACK 94 AUDIO
TITLE "2020.02.06-06:32.13:555630"
INDEX 00 32:48:45
INDEX 01 33:13:17

TRACK 95 AUDIO
TITLE "2020.02.06-06:32.20:833717"
INDEX 00 33:16:68
INDEX 01 33:20:37

TRACK 96 AUDIO
TITLE "2020.02.06-06:32.32:013838"
INDEX 00 33:22:70
INDEX 01 33:31:51

TRACK 97 AUDIO
TITLE "2020.02.06-06:33.02:373782"
INDEX 00 33:45:72
INDEX 01 34:02:03

TRACK 98 AUDIO
TITLE "2020.02.06-06:33.08:313626"
INDEX 00 34:05:61
INDEX 01 34:07:73

TRACK 99 AUDIO
TITLE "2020.02.06-06:33.14:334302"
INDEX 00 34:13:43
INDEX 01 34:14:00

TRACK 100 AUDIO
TITLE "2020.02.06-06:33.26:237694"
INDEX 00 34:20:51
INDEX 01 34:25:68

TRACK 101 AUDIO
TITLE "2020.02.06-06:33.35:453631"
INDEX 00 34:31:59
INDEX 01 34:35:09

TRACK 102 AUDIO
TITLE "2020.02.06-06:33.55:853614"
INDEX 00 34:55:04
INDEX 01 34:55:39

TRACK 103 AUDIO
TITLE "2020.02.06-06:34.10:858575"
INDEX 00 35:08:37
INDEX 01 35:10:39

TRACK 104 AUDIO
TITLE "2020.02.06-06:34.16:936336"
INDEX 00 35:14:62
INDEX 01 35:16:45

TRACK 105 AUDIO
TITLE "2020.02.06-06:34.52:073820"
INDEX 00 35:49:74
INDEX 01 35:51:55

TRACK 106 AUDIO
TITLE "2020.02.06-06:34.58:773998"
INDEX 00 35:54:40
INDEX 01 35:58:33

TRACK 107 AUDIO
TITLE "2020.02.06-06:35.08:173904"
INDEX 00 36:03:12
INDEX 01 36:07:63

TRACK 108 AUDIO
TITLE "2020.02.06-06:35.11:053762"
INDEX 00 36:10:07
INDEX 01 36:10:54

TRACK 109 AUDIO
TITLE "2020.02.06-06:35.16:013799"
INDEX 00 36:13:10
INDEX 01 36:15:51

TRACK 110 AUDIO
TITLE "2020.02.06-06:35.41:453682"
INDEX 00 36:37:57
INDEX 01 36:41:09

TRACK 111 AUDIO
TITLE "2020.02.06-06:35.47:058278"
INDEX 00 36:45:28
INDEX 01 36:46:54

TRACK 112 AUDIO
TITLE "2020.02.06-06:36.01:374355"
INDEX 00 36:56:60
INDEX 01 37:01:03

TRACK 113 AUDIO
TITLE "2020.02.06-06:36.16:273848"
INDEX 00 37:11:57
INDEX 01 37:15:70

TRACK 114 AUDIO
TITLE "2020.02.06-06:36.35:953862"
INDEX 00 37:34:04
INDEX 01 37:35:46

TRACK 115 AUDIO
TITLE "2020.02.06-06:36.49:633785"
INDEX 00 37:48:55
INDEX 01 37:49:22

TRACK 116 AUDIO
TITLE "2020.02.06-06:36.57:433709"
INDEX 00 37:53:63
INDEX 01 37:57:07

TRACK 117 AUDIO
TITLE "2020.02.06-06:37.25:436546"
INDEX 00 38:24:30
INDEX 01 38:25:08

TRACK 118 AUDIO
TITLE "2020.02.06-06:37.47:533720"
INDEX 00 38:46:27
INDEX 01 38:47:15

TRACK 119 AUDIO
TITLE "2020.02.06-06:37.53:076450"
INDEX 00 38:51:13
INDEX 01 38:52:56

TRACK 120 AUDIO
TITLE "2020.02.06-06:38.12:314155"
INDEX 00 39:07:48
INDEX 01 39:11:73

TRACK 121 AUDIO
TITLE "2020.02.06-06:38.37:073676"
INDEX 00 39:28:21
INDEX 01 39:36:55

TRACK 122 AUDIO
TITLE "2020.02.06-06:38.41:553790"
INDEX 00 39:40:16
INDEX 01 39:41:16

TRACK 123 AUDIO
TITLE "2020.02.06-06:38.46:393711"
INDEX 00 39:42:54
INDEX 01 39:46:04

TRACK 124 AUDIO
TITLE "2020.02.06-06:38.49:138744"
INDEX 00 39:47:63
INDEX 01 39:48:60

TRACK 125 AUDIO
TITLE "2020.02.06-06:39.01:273879"
INDEX 00 39:59:71
INDEX 01 40:00:70

TRACK 126 AUDIO
TITLE "2020.02.06-06:39.03:373643"
INDEX 00 40:02:31
INDEX 01 40:03:03

TRACK 127 AUDIO
TITLE "2020.02.06-06:39.22:553791"
INDEX 00 40:13:45
INDEX 01 40:22:16

TRACK 128 AUDIO
TITLE "2020.02.06-06:39.47:553808"
INDEX 00 40:34:39
INDEX 01 40:47:16

TRACK 129 AUDIO
TITLE "2020.02.06-06:40.11:058559"
INDEX 00 41:09:34
INDEX 01 41:10:54

TRACK 130 AUDIO
TITLE "2020.02.06-06:40.27:233624"
INDEX 00 41:17:03
INDEX 01 41:26:67

TRACK 131 AUDIO
TITLE "2020.02.06-06:40.47:619537"
INDEX 00 41:43:19
INDEX 01 41:47:21

TRACK 132 AUDIO
TITLE "2020.02.06-06:41.13:353790"
INDEX 00 42:10:56
INDEX 01 42:13:01

TRACK 133 AUDIO
TITLE "2020.02.06-06:41.32:453722"
INDEX 00 42:31:25
INDEX 01 42:32:09

TRACK 134 AUDIO
TITLE "2020.02.06-06:41.41:073606"
INDEX 00 42:39:69
INDEX 01 42:40:55

TRACK 135 AUDIO
TITLE "2020.02.06-06:42.26:353753"
INDEX 00 43:03:58
INDEX 01 43:26:01

TRACK 136 AUDIO
TITLE "2020.02.06-06:42.35:198678"
INDEX 00 43:33:00
INDEX 01 43:34:65

TRACK 137 AUDIO
TITLE "2020.02.06-06:43.21:173776"
INDEX 00 43:46:48
INDEX 01 44:20:63

TRACK 138 AUDIO
TITLE "2020.02.06-06:43.25:913671"
INDEX 00 44:25:27
INDEX 01 44:25:43

TRACK 139 AUDIO
TITLE "2020.02.06-06:43.57:353656"
INDEX 00 44:56:37
INDEX 01 44:57:01

TRACK 140 AUDIO
TITLE "2020.02.06-06:44.11:213675"
INDEX 00 45:09:42
INDEX 01 45:10:66

TRACK 141 AUDIO
TITLE "2020.02.06-06:44.25:113951"
INDEX 00 45:21:40
INDEX 01 45:24:58

TRACK 142 AUDIO
TITLE "2020.02.06-06:44.42:695499"
INDEX 00 45:34:03
INDEX 01 45:42:27

TRACK 143 AUDIO
TITLE "2020.02.06-06:44.48:873833"
INDEX 00 45:47:74
INDEX 01 45:48:40

TRACK 144 AUDIO
TITLE "2020.02.06-06:45.05:013667"
INDEX 00 45:55:51
INDEX 01 46:04:51

TRACK 145 AUDIO
TITLE "2020.02.06-06:45.24:054168"
INDEX 00 46:22:21
INDEX 01 46:23:54

TRACK 146 AUDIO
TITLE "2020.02.06-06:46.24:373695"
INDEX 00 47:17:21
INDEX 01 47:24:03

TRACK 147 AUDIO
TITLE "2020.02.06-06:46.39:433792"
INDEX 00 47:31:28
INDEX 01 47:39:07

TRACK 148 AUDIO
TITLE "2020.02.06-06:47.01:153768"
INDEX 00 47:58:66
INDEX 01 48:00:61

TRACK 149 AUDIO
TITLE "2020.02.06-06:47.11:913766"
INDEX 00 48:08:61
INDEX 01 48:11:43

TRACK 150 AUDIO
TITLE "2020.02.06-06:47.30:173732"
INDEX 00 48:19:72
INDEX 01 48:29:63

TRACK 151 AUDIO
TITLE "2020.02.06-06:47.36:573759"
INDEX 00 48:33:19
INDEX 01 48:36:18

TRACK 152 AUDIO
TITLE "2020.02.06-06:47.40:275121"
INDEX 00 48:39:04
INDEX 01 48:39:70

TRACK 153 AUDIO
TITLE "2020.02.06-06:47.52:993788"
INDEX 00 48:52:07
INDEX 01 48:52:49

TRACK 154 AUDIO
TITLE "2020.02.06-06:48.05:953817"
INDEX 00 49:05:33
INDEX 01 49:05:46

TRACK 155 AUDIO
TITLE "2020.02.06-06:48.17:836626"
INDEX 00 49:13:72
INDEX 01 49:17:38

TRACK 156 AUDIO
TITLE "2020.02.06-06:48.42:773838"
INDEX 00 49:41:60
INDEX 01 49:42:33

TRACK 157 AUDIO
TITLE "2020.02.06-06:48.47:173991"
INDEX 00 49:45:25
INDEX 01 49:46:63

TRACK 158 AUDIO
TITLE "2020.02.06-06:49.28:013850"
INDEX 00 50:27:34
INDEX 01 50:27:51

TRACK 159 AUDIO
TITLE "2020.02.06-06:49.46:357105"
INDEX 00 50:38:27
INDEX 01 50:46:02

TRACK 160 AUDIO
TITLE "2020.02.06-06:49.55:553621"
INDEX 00 50:52:29
INDEX 01 50:55:16

TRACK 161 AUDIO
TITLE "2020.02.06-06:50.52:793818"
INDEX 00 51:01:45
INDEX 01 51:52:34

TRACK 162 AUDIO
TITLE "2020.02.06-06:51.01:053807"
INDEX 00 51:59:57
INDEX 01 52:00:54

TRACK 163 AUDIO
TITLE "2020.02.06-06:51.12:113771"
INDEX 00 52:11:54
INDEX 01 52:11:58

TRACK 164 AUDIO
TITLE "2020.02.06-06:51.38:436916"
INDEX 00 52:34:01
INDEX 01 52:38:08

TRACK 165 AUDIO
TITLE "2020.02.06-06:51.56:814007"
INDEX 00 52:50:32
INDEX 01 52:56:36

TRACK 166 AUDIO
TITLE "2020.02.06-06:52.25:033799"
INDEX 00 53:19:19
INDEX 01 53:24:52

TRACK 167 AUDIO
TITLE "2020.02.06-06:52.56:753728"
INDEX 00 53:53:12
INDEX 01 53:56:31

TRACK 168 AUDIO
TITLE "2020.02.06-06:53.00:953670"
INDEX 00 54:00:09
INDEX 01 54:00:46

TRACK 169 AUDIO
TITLE "2020.02.06-06:53.09:855923"
INDEX 00 54:05:51
INDEX 01 54:09:39

TRACK 170 AUDIO
TITLE "2020.02.06-06:53.13:573705"
INDEX 00 54:12:20
INDEX 01 54:13:18

TRACK 171 AUDIO
TITLE "2020.02.06-06:53.20:893733"
INDEX 00 54:20:00
INDEX 01 54:20:42

TRACK 172 AUDIO
TITLE "2020.02.06-06:53.41:953790"
INDEX 00 54:41:21
INDEX 01 54:41:46

TRACK 173 AUDIO
TITLE "2020.02.06-06:54.10:753705"
INDEX 00 55:09:46
INDEX 01 55:10:31

TRACK 174 AUDIO
TITLE "2020.02.06-06:54.21:753608"
INDEX 00 55:17:19
INDEX 01 55:21:31

TRACK 175 AUDIO
TITLE "2020.02.06-06:55.00:653704"
INDEX 00 55:59:39
INDEX 01 56:00:24

TRACK 176 AUDIO
TITLE "2020.02.06-06:55.40:514768"
INDEX 00 56:15:45
INDEX 01 56:40:13

TRACK 177 AUDIO
TITLE "2020.02.06-06:56.04:093801"
INDEX 00 56:57:42
INDEX 01 57:03:57

TRACK 178 AUDIO
TITLE "2020.02.06-06:56.13:853726"
INDEX 00 57:10:10
INDEX 01 57:13:39

TRACK 179 AUDIO
TITLE "2020.02.06-06:57.19:095404"
INDEX 00 57:25:24
INDEX 01 58:18:57

TRACK 180 AUDIO
TITLE "2020.02.06-06:58.02:173772"
INDEX 00 58:25:71
INDEX 01 59:01:63

TRACK 181 AUDIO
TITLE "2020.02.06-06:58.39:013783"
INDEX 00 59:08:09
INDEX 01 59:38:51

TRACK 182 AUDIO
TITLE "2020.02.06-06:59.06:153780"
INDEX 00 59:45:10
INDEX 01 60:05:61

TRACK 183 AUDIO
TITLE "2020.02.06-06:59.41:355936"
INDEX 00 60:15:03
INDEX 01 60:41:02

TRACK 184 AUDIO
TITLE "2020.02.06-06:59.56:973787"
INDEX 00 60:55:08
INDEX 01 60:56:48

TRACK 185 AUDIO
TITLE "2020.02.06-07:00.05:613654"
INDEX 00 61:00:52
INDEX 01 61:05:21

TRACK 186 AUDIO
TITLE "2020.02.06-07:00.28:494047"
INDEX 00 61:13:61
INDEX 01 61:28:12

TRACK 187 AUDIO
TITLE "2020.02.06-07:00.37:773884"
INDEX 00 61:32:42
INDEX 01 61:37:33

